<svg width="181" height="44" viewBox="0 0 181 44" fill="none" xmlns="http://www.w3.org/2000/svg">
<rect x="145.3" y="6.30005" width="30" height="30" rx="7.05882" fill="#FF6121"/>
<path d="M11.3529 29.1764L0.84408 27.9947C1.77257 27.9947 2.53224 27.6852 3.1231 27.0662C3.74209 26.4191 4.23447 25.5328 4.60023 24.4074C4.966 23.2538 5.23329 21.9033 5.40211 20.3558C5.59906 18.7802 5.73974 17.0498 5.82415 15.1647L6.16178 6.17526H31.1465V31.4977H21.3552V13.8986H14.5604L14.476 16.0088C14.4197 17.5563 14.3212 19.0053 14.1805 20.3558C14.0399 21.7063 13.8429 22.9443 13.5897 24.0698C13.3646 25.1952 13.0692 26.194 12.7034 27.0662C12.3376 27.9103 11.8875 28.6137 11.3529 29.1764ZM0 41.5V27.9947H35.0293V41.5H25.9132V35.7181H9.11606V41.5H0Z" fill="#4542E3"/>
<path d="M50.0648 36.3933C47.6451 36.3933 45.4083 36.0135 43.3544 35.2538C41.3286 34.4941 39.5701 33.425 38.0789 32.0463C36.5877 30.6395 35.42 28.9936 34.5759 27.1084C33.76 25.2233 33.352 23.1694 33.352 20.9467C33.352 18.6958 33.76 16.6419 34.5759 14.7849C35.42 12.8998 36.5877 11.2679 38.0789 9.88921C39.5701 8.48241 41.3286 7.39918 43.3544 6.63951C45.4083 5.87984 47.631 5.5 50.0226 5.5C52.4423 5.5 54.665 5.87984 56.6908 6.63951C58.7166 7.39918 60.4751 8.48241 61.9663 9.88921C63.4575 11.2679 64.6111 12.8998 65.4271 14.7849C66.2711 16.6419 66.6932 18.6958 66.6932 20.9467C66.6932 23.1694 66.2711 25.2233 65.4271 27.1084C64.6111 28.9936 63.4575 30.6395 61.9663 32.0463C60.4751 33.425 58.7166 34.4941 56.6908 35.2538C54.665 36.0135 52.4564 36.3933 50.0648 36.3933ZM50.0226 28.3324C50.9511 28.3324 51.8092 28.1635 52.597 27.8259C53.413 27.4883 54.1164 27.01 54.7072 26.391C55.3262 25.7438 55.8045 24.9701 56.1422 24.0698C56.4798 23.1413 56.6486 22.1002 56.6486 20.9467C56.6486 19.7931 56.4798 18.7661 56.1422 17.8658C55.8045 16.9373 55.3262 16.1635 54.7072 15.5445C54.1164 14.8974 53.413 14.405 52.597 14.0674C51.8092 13.7298 50.9511 13.561 50.0226 13.561C49.0941 13.561 48.2219 13.7298 47.406 14.0674C46.6181 14.405 45.9147 14.8974 45.2958 15.5445C44.7049 16.1635 44.2407 16.9373 43.903 17.8658C43.5654 18.7661 43.3966 19.7931 43.3966 20.9467C43.3966 22.1002 43.5654 23.1413 43.903 24.0698C44.2407 24.9701 44.7049 25.7438 45.2958 26.391C45.9147 27.01 46.6181 27.4883 47.406 27.8259C48.2219 28.1635 49.0941 28.3324 50.0226 28.3324Z" fill="#4542E3"/>
<path d="M81.7574 36.3933C79.3939 36.3933 77.1993 36.0275 75.1735 35.296C73.1759 34.5363 71.4314 33.4672 69.9402 32.0885C68.4772 30.7098 67.3377 29.078 66.5217 27.1928C65.7058 25.3077 65.2978 23.2257 65.2978 20.9467C65.2978 18.6676 65.7058 16.5856 66.5217 14.7005C67.3377 12.8154 68.4772 11.1835 69.9402 9.80481C71.4314 8.42614 73.1759 7.37104 75.1735 6.63951C77.1993 5.87984 79.3939 5.5 81.7574 5.5C84.6554 5.5 87.2157 6.00645 89.4385 7.01934C91.6894 8.03224 93.5463 9.49531 95.0094 11.4086L88.721 17.0217C87.8488 15.9244 86.8781 15.0803 85.8089 14.4894C84.7679 13.8705 83.5862 13.561 82.2638 13.561C81.2228 13.561 80.2802 13.7298 79.4361 14.0674C78.5921 14.405 77.8605 14.8974 77.2415 15.5445C76.6507 16.1917 76.1864 16.9795 75.8488 17.908C75.5112 18.8083 75.3424 19.8212 75.3424 20.9467C75.3424 22.0721 75.5112 23.0991 75.8488 24.0275C76.1864 24.9279 76.6507 25.7016 77.2415 26.3488C77.8605 26.9959 78.5921 27.4883 79.4361 27.8259C80.2802 28.1635 81.2228 28.3324 82.2638 28.3324C83.5862 28.3324 84.7679 28.0369 85.8089 27.4461C86.8781 26.8271 87.8488 25.9689 88.721 24.8716L95.0094 30.4848C93.5463 32.3699 91.6894 33.8329 89.4385 34.874C87.2157 35.8869 84.6554 36.3933 81.7574 36.3933Z" fill="#4542E3"/>
<path d="M112.79 35.7181L105.447 21.8751L113.381 17.2327L124.016 35.7181H112.79ZM94.3892 35.7181V6.17526H104.349V35.7181H94.3892ZM101.479 25.0404V17.1905H112.664V25.0404H101.479ZM114.352 22.0018L105.193 21.0733L113.676 6.17526H124.059L114.352 22.0018Z" fill="#4542E3"/>
<path d="M119.357 35.7181L132.272 6.17526H142.063L154.978 35.7181H144.68L135.142 10.9021H139.025L129.486 35.7181H119.357ZM127.039 30.5692L129.571 23.3945H143.161L145.693 30.5692H127.039Z" fill="#4542E3"/>
</svg>
